<svg width="21" height="20" viewBox="0 0 21 20" fill="none" xmlns="http://www.w3.org/2000/svg">
<path d="M20.1167 0H0.861199C0.397476 0 0 0.375394 0 0.861199V4.5489C0 5.01262 0.375394 5.41009 0.861199 5.41009H20.1388C20.6025 5.41009 21 5.0347 21 4.5489V0.839117C20.9779 0.375394 20.6025 0 20.1167 0ZM2.80442 3.4448C2.38486 3.4448 2.03155 3.11356 2.03155 2.67192C2.03155 2.25237 2.36278 1.89905 2.80442 1.89905C3.22397 1.89905 3.57729 2.23028 3.57729 2.67192C3.55521 3.11356 3.22397 3.4448 2.80442 3.4448ZM5.49842 3.4448C5.07886 3.4448 4.72555 3.11356 4.72555 2.67192C4.72555 2.25237 5.05678 1.89905 5.49842 1.89905C5.94006 1.89905 6.27129 2.23028 6.27129 2.67192C6.24921 3.11356 5.91798 3.4448 5.49842 3.4448ZM18.9464 2.95899C18.9464 3.13565 18.8139 3.26814 18.6372 3.26814H8.05994C7.88328 3.26814 7.75079 3.13565 7.75079 2.95899V2.42902C7.75079 2.25237 7.88328 2.11987 8.05994 2.11987H18.6372C18.8139 2.11987 18.9464 2.25237 18.9464 2.42902V2.95899Z" fill="white"/>
<path d="M20.1167 6.89062H0.861199C0.397476 6.89062 0 7.26602 0 7.75182V11.4395C0 11.9032 0.375394 12.3007 0.861199 12.3007H20.1388C20.6025 12.3007 21 11.9253 21 11.4395V7.72974C20.9779 7.26602 20.6025 6.89062 20.1167 6.89062ZM2.80442 10.3354C2.38486 10.3354 2.03155 10.0042 2.03155 9.56255C2.03155 9.14299 2.36278 8.78968 2.80442 8.78968C3.22397 8.78968 3.57729 9.12091 3.57729 9.56255C3.55521 10.0042 3.22397 10.3354 2.80442 10.3354ZM5.49842 10.3354C5.07886 10.3354 4.72555 10.0042 4.72555 9.56255C4.72555 9.14299 5.05678 8.78968 5.49842 8.78968C5.94006 8.78968 6.27129 9.12091 6.27129 9.56255C6.24921 10.0042 5.91798 10.3354 5.49842 10.3354ZM18.9464 9.84962C18.9464 10.0263 18.8139 10.1588 18.6372 10.1588H8.05994C7.88328 10.1588 7.75079 10.0263 7.75079 9.84962V9.31965C7.75079 9.14299 7.88328 9.0105 8.05994 9.0105H18.6372C18.8139 9.0105 18.9464 9.14299 18.9464 9.31965V9.84962Z" fill="white"/>
<path d="M20.1167 13.7812H0.861199C0.397476 13.7812 0 14.1566 0 14.6424V18.3301C0 18.7939 0.375394 19.1913 0.861199 19.1913H20.1388C20.6025 19.1913 21 18.8159 21 18.3301V14.6424C20.9779 14.1566 20.6025 13.7812 20.1167 13.7812ZM2.80442 17.2481C2.38486 17.2481 2.03155 16.9169 2.03155 16.4753C2.03155 16.0557 2.36278 15.7024 2.80442 15.7024C3.22397 15.7024 3.57729 16.0336 3.57729 16.4753C3.55521 16.8948 3.22397 17.2481 2.80442 17.2481ZM5.49842 17.2481C5.07886 17.2481 4.72555 16.9169 4.72555 16.4753C4.72555 16.0557 5.05678 15.7024 5.49842 15.7024C5.94006 15.7024 6.27129 16.0336 6.27129 16.4753C6.24921 16.8948 5.91798 17.2481 5.49842 17.2481ZM18.9464 16.7402C18.9464 16.9169 18.8139 17.0494 18.6372 17.0494H8.05994C7.88328 17.0494 7.75079 16.9169 7.75079 16.7402V16.2103C7.75079 16.0336 7.88328 15.9011 8.05994 15.9011H18.6372C18.8139 15.9011 18.9464 16.0336 18.9464 16.2103V16.7402Z" fill="white"/>
</svg>
